<svg xmlns="http://www.w3.org/2000/svg" width="80" height="20" viewBox="0 0 80 20">
  <metadata><?xpacket begin="﻿" id="W5M0MpCehiHzreSzNTczkc9d"?>
<x:xmpmeta xmlns:x="adobe:ns:meta/" x:xmptk="Adobe XMP Core 5.6-c138 79.159824, 2016/09/14-01:09:01        ">
   <rdf:RDF xmlns:rdf="http://www.w3.org/1999/02/22-rdf-syntax-ns#">
      <rdf:Description rdf:about=""/>
   </rdf:RDF>
</x:xmpmeta>
                                                                                                    
                                                                                                    
                                                                                                    
                                                                                                    
                                                                                                    
                                                                                                    
                                                                                                    
                                                                                                    
                                                                                                    
                                                                                                    
                                                                                                    
                                                                                                    
                                                                                                    
                                                                                                    
                                                                                                    
                                                                                                    
                                                                                                    
                                                                                                    
                                                                                                    
                                                                                                    
                           
<?xpacket end="w"?></metadata>
<defs>
    <style>
      .cls-1 {
        fill-rule: evenodd;
      }
    </style>
  </defs>
  <path id="Фигура_4" data-name="Фигура 4" class="cls-1" d="M15.926,4.939c-0.61,2.128-2.184,3.545-3.514,3.166s-1.914-2.413-1.3-4.541S13.293,0.019,14.623.4,16.537,2.812,15.926,4.939ZM6.539,0.013C5.173,0.231,4.349,2.179,4.7,4.364S6.44,8.146,7.806,7.928,10,5.762,9.647,3.577,7.906-.2,6.539.013ZM1.324,6.033c-1.27.5-1.7,2.413-.962,4.264S2.729,13.239,4,12.735s1.7-2.413.961-4.264S2.593,5.529,1.324,6.033ZM18.746,7.4c-1.257-.536-2.912.515-3.7,2.346s-0.4,3.751.853,4.287,2.912-.515,3.7-2.346S20,7.939,18.746,7.4ZM15.773,18.876c1.551-1.643-2.679-8.437-5.78-8.578-3.242-.147-8.178,7.172-6.486,8.859s4.794,0.281,6.486,0S13.381,21.411,15.773,18.876Zm9.82-9.658,2.712,5.391S32.712,3.652,39.661,0c-0.169,2.609-.847,4.87.339,7.652-3.051.7-9.322,8.522-11.356,12.348-2.881-3.652-6.271-6.435-8.644-7.3ZM50,4.369C47.406-2.566,40.047-.948,40,7.1c-0.027,4.421,3.5,6.073,5.855,7.84A12.521,12.521,0,0,1,50.011,20c0.218-.978,2.025-3.389,4.135-5.1,2.307-1.876,5.882-3.42,5.855-7.841C59.952-1.016,52.465-2.289,50,4.369Zm30-.656S78.346,2.3,77.445,2.406c-0.848.1-8.422,5.152-9.319,5.752-0.117-.089-0.189-0.142-0.2-0.153a2.434,2.434,0,0,0-1.748-.247c0.041-.177.078-0.359,0.1-0.553,0.349-2.5-.656-5.484-2.244-6.667S60.469,0.12,60.12,2.62a7.624,7.624,0,0,0,2.718,6.5c0.869,0.648,1.662.83,2.354,0.3,0.549-.424,1.228-0.058,1.687.637-0.465.708-1.163,1.08-1.723,0.624a1.823,1.823,0,0,0-2.355.2,7.374,7.374,0,0,0-2.767,6.389c0.329,2.513,2.3,3.357,3.9,2.239s2.624-4.062,2.294-6.575c-0.025-.195-0.061-0.378-0.1-0.556a2.4,2.4,0,0,0,1.749-.176l0.236-.165c0.7,0.5,8.445,6.018,9.3,6.151,0.9,0.139,2.559-1.2,2.559-1.2L70.8,10.15ZM65.559,6.671C65.3,8.546,64.219,8.64,63.028,7.752s-2.553-2.8-2.291-4.673a1.9,1.9,0,0,1,3.139-1.408A5.782,5.782,0,0,1,65.559,6.671Zm-1.777,11.7a1.947,1.947,0,0,1-3.129-1.536,5.315,5.315,0,0,1,2.327-4.579c1.2-.839,2.275-0.7,2.522,1.183S64.98,17.532,63.782,18.37Z"/>
</svg>
